<svg width="190" height="190" viewBox="0 0 190 190" fill="none" xmlns="http://www.w3.org/2000/svg">
<path d="M38.6413 107.889C38.5417 107.216 38.3703 106.332 38.2325 105.402C38.0333 104.057 37.9264 103.062 37.7974 102.191C37.7886 102.132 37.5512 102.167 37.56 102.226C37.8413 104.126 37.631 104.48 36.444 104.656L27.3829 105.999C26.5916 106.117 26.2252 105.827 26.0816 104.858L25.9469 103.948C25.7095 102.345 26.4731 101.221 28.2632 100.612C28.3394 100.581 28.2874 100.366 28.228 100.375L25.1476 100.872C25.0289 100.889 24.9783 100.957 24.9988 101.096L26.2617 109.623C26.2734 109.702 26.5108 109.667 26.4991 109.588C26.3086 108.302 26.5138 108.049 27.6415 107.882L36.8015 106.524C37.9489 106.354 38.2017 106.559 38.4039 107.924C38.4156 108.003 38.653 107.968 38.6413 107.889Z" fill="#B29D8C"/>
<path d="M37.5943 84.6015C37.5514 85.3202 36.9415 85.8051 34.9676 86.6502L24.8141 90.939C24.7319 90.9743 24.7352 91.2549 24.7939 91.2784L34.2024 96.1214C36.3203 97.2281 36.8096 97.7579 36.7453 98.8359C36.7382 98.9557 36.9778 98.9699 36.9849 98.8501C37.0361 97.9916 36.9837 97.5277 37.0432 96.5295C37.1051 95.4914 37.2171 94.9571 37.2636 94.1785C37.2707 94.0587 37.0311 94.0445 37.024 94.1643C36.9299 95.7415 36.0062 96.4483 34.4306 95.654L31.0683 93.9128L31.2838 90.2993L35.7848 88.4014C37.0596 87.8556 37.3871 88.0753 37.3157 89.2731C37.3085 89.3929 37.5481 89.407 37.5553 89.2873C37.6029 88.4887 37.5552 87.9449 37.6088 87.0466C37.6552 86.268 37.7875 85.3943 37.8339 84.6156C37.841 84.4959 37.6015 84.4817 37.5943 84.6015ZM30.5623 93.6626L27.3173 91.9684L30.7492 90.5282L30.5623 93.6626Z" fill="#B29D8C"/>
<path d="M37.3289 80.685L28.4976 78.3287C27.3961 78.0347 27.2894 77.7372 27.5275 76.8486C27.9725 75.1872 29.4062 74.4727 31.4546 75.0192C33.6189 75.5967 34.3571 77.0149 34.0208 78.2706C33.9742 78.4445 33.8825 78.7098 33.7624 78.9262C33.7224 78.9983 33.9581 79.1233 34.0033 79.0318C34.1582 78.7627 34.2655 78.4394 34.3431 78.1496C34.8761 76.1598 34.2602 73.5116 31.5727 72.8773C29.2911 72.3513 27.9275 73.809 27.2962 76.1659C27.053 77.0738 26.8688 78.2253 26.7033 78.8434C26.4601 79.7514 26.1848 80.5473 26.0089 81.2041C25.9882 81.2814 26.2201 81.3433 26.2407 81.266C26.5771 80.0103 26.8659 79.8597 27.9674 80.1536L36.9146 82.5409C38.0355 82.84 38.1911 83.1092 37.8548 84.3649C37.8341 84.4422 38.066 84.5041 38.0867 84.4268C38.2626 83.77 38.4464 82.9289 38.6896 82.021C38.9949 80.8812 39.2871 79.9449 39.5096 79.1142C39.5251 79.0562 39.2932 78.9944 39.2777 79.0523C38.812 80.791 38.4884 80.9944 37.3289 80.685Z" fill="#B29D8C"/>
<path d="M46.3595 62.7024C46.0354 63.3453 45.283 63.5491 43.1354 63.5438L32.1109 63.4632C32.0214 63.4629 31.9132 63.7219 31.9578 63.7667L38.6798 71.9365C40.1864 73.7907 40.4259 74.4707 39.9397 75.4351C39.8857 75.5422 40.1001 75.65 40.1542 75.5429C40.5413 74.775 40.6769 74.3283 41.1271 73.4354C41.5953 72.5068 41.9099 72.0606 42.2611 71.3641C42.3151 71.257 42.1007 71.1492 42.0466 71.2563C41.3353 72.6671 40.2069 72.9504 39.0746 71.5977L36.6765 68.6685L38.3062 65.4362L43.192 65.475C44.5791 65.4784 44.7928 65.8097 44.2526 66.8812C44.1986 66.9883 44.413 67.0961 44.467 66.989C44.8272 66.2746 44.9988 65.7565 45.404 64.9529C45.7551 64.2565 46.2228 63.5067 46.5739 62.8102C46.628 62.7031 46.4135 62.5953 46.3595 62.7024ZM36.3109 68.2384L34.002 65.3988L37.7245 65.4348L36.3109 68.2384Z" fill="#B29D8C"/>
<path d="M55.407 52.0306C54.5106 53.0797 54.1872 53.1194 53.3044 52.3669L46.2572 46.3593C45.3896 45.6198 45.3629 45.2816 46.2594 44.2325C46.3113 44.1717 46.1287 44.016 46.0767 44.0768C45.635 44.5937 45.057 45.3625 44.4464 46.0771C43.7059 46.9438 43.1145 47.5434 42.6728 48.0604C42.6338 48.106 42.8165 48.2617 42.8554 48.2161C43.8169 47.0909 44.1729 47.1053 45.0404 47.8449L48.1455 50.4919L43.6892 55.7071L40.5842 53.0601C39.7166 52.3205 39.6724 51.9412 40.6078 50.8465C40.6468 50.8009 40.4642 50.6452 40.4252 50.6908C39.9575 51.2382 39.4445 51.9309 38.7039 52.7975C38.0933 53.5122 37.476 54.1422 37.0343 54.6592C36.9953 54.7048 37.1779 54.8605 37.2169 54.8149C38.1004 53.781 38.4389 53.7542 39.3065 54.4938L46.3537 60.5013C47.2365 61.2539 47.248 61.5791 46.3516 62.6282C46.2996 62.689 46.4823 62.8447 46.5342 62.7839C46.9759 62.267 47.5301 61.5568 48.1408 60.8422C48.8813 59.9755 49.4574 59.3629 49.9381 58.8003C49.9771 58.7547 49.7945 58.599 49.7555 58.6446C48.8071 59.7545 48.4837 59.7943 47.6009 59.0417L44.0849 56.0444L48.5412 50.8292L52.0572 53.8265C52.94 54.5791 52.9645 54.889 52.0031 56.0142C51.9641 56.0598 52.1468 56.2155 52.1857 56.1699C52.6275 55.6529 53.1427 54.9884 53.8832 54.1217C54.4939 53.4071 55.1479 52.7032 55.5897 52.1863C55.6416 52.1255 55.459 51.9698 55.407 52.0306Z" fill="#B29D8C"/>
<path d="M51.8868 39.931C52.7239 39.3139 53.0198 39.3443 53.6139 40.1487L59.1155 47.5975C59.8047 48.5306 59.6939 48.8855 58.5027 49.7637C58.4544 49.7993 58.597 49.9924 58.6453 49.9568C59.257 49.5058 59.9898 48.9159 60.8108 48.3106C61.6962 47.658 62.4444 47.1561 63.0401 46.717C63.1044 46.6695 62.9619 46.4765 62.8975 46.524C61.674 47.4259 61.3662 47.3794 60.677 46.4463L55.1992 39.0297C54.5932 38.2093 54.6073 37.9255 55.4927 37.2728C56.8128 36.2997 58.1685 36.4184 59.6415 37.9415C59.6933 37.9779 59.8704 37.8474 59.8347 37.7991C59.4426 37.2682 58.0972 35.2783 57.6506 34.539C57.5912 34.4586 57.4302 34.5773 57.4735 34.6696C57.6104 35.0905 57.2716 35.4397 56.5149 35.9974C55.6939 36.6027 54.9569 37.2205 53.4437 38.3361C52.2363 39.2261 51.1136 40.0289 50.1723 40.6731C49.8664 40.8986 49.2631 41.2936 49.0255 40.9719C48.9423 40.8593 48.761 41.0178 48.8323 41.1143C49.4027 41.8865 50.553 43.7469 50.9003 44.3854C50.9359 44.4337 51.1249 44.3192 51.1053 44.2591C50.3678 42.318 50.5506 40.916 51.8868 39.931Z" fill="#B29D8C"/>
<path d="M77.9818 38.9925C76.7197 39.5505 76.4111 39.4464 75.9415 38.3857L72.1925 29.9184C71.7309 28.876 71.8533 28.5595 73.1154 28.0015C73.1885 27.9691 73.0914 27.7497 73.0182 27.782C72.3963 28.057 71.5426 28.5001 70.7012 28.8721C69.6403 29.3412 68.8477 29.626 68.2441 29.8929C68.171 29.9253 68.2681 30.1447 68.3413 30.1124C69.6949 29.5139 69.9911 29.689 70.4527 30.7314L70.728 31.3532L67.5399 40.5042L64.3982 33.4085C63.9367 32.3661 64.0611 32.0049 65.3781 31.4226C65.4329 31.3983 65.3358 31.1789 65.2809 31.2031C64.6224 31.4943 63.8602 31.8969 62.8176 32.3579C61.9579 32.7381 61.1287 33.0391 60.5068 33.314C60.452 33.3383 60.5491 33.5578 60.604 33.5335C61.8478 32.9835 62.1645 33.1059 62.626 34.1483L66.375 42.6156C66.8446 43.6763 66.7142 43.9745 65.4521 44.5326C65.3789 44.5649 65.4761 44.7844 65.5493 44.752C66.1712 44.4771 66.9781 44.0765 67.8378 43.6964C68.8804 43.2354 69.6649 42.9323 70.3416 42.6331C70.3965 42.6088 70.2993 42.3893 70.2445 42.4136C68.9092 43.004 68.6006 42.8999 68.131 41.8392L67.8395 41.1808L71.0276 32.0299L74.1855 39.1621C74.6551 40.2228 74.5613 40.5049 73.2077 41.1034C73.1345 41.1357 73.2317 41.3552 73.3049 41.3228C73.9085 41.0559 74.6605 40.6797 75.7214 40.2106C76.5628 39.8386 77.457 39.4869 78.0789 39.2119C78.1521 39.1796 78.0549 38.9601 77.9818 38.9925Z" fill="#B29D8C"/>
<path d="M89.0571 36.8981C87.6254 37.1842 87.4058 37.0037 87.1785 35.8662L85.3641 26.7857C85.1407 25.6678 85.2702 25.3972 86.6823 25.115C86.7608 25.0993 86.7137 24.864 86.6353 24.8797C85.9292 25.0207 85.1173 25.2442 84.1367 25.4401C83.4698 25.5734 82.3873 25.6673 81.8381 25.777C79.5827 26.2277 78.1429 27.8003 78.4995 29.585C78.8248 31.2128 80.319 32.0564 82.8529 31.7744C81.6251 32.2645 80.8248 33.0567 80.1302 35.0922C79.157 37.673 78.9293 38.881 77.6623 39.1749C77.6035 39.1867 77.6505 39.422 77.7093 39.4103L80.1021 38.9322C80.5531 38.8421 80.6394 38.9676 81.9345 35.1396C82.7743 32.606 83.3785 31.853 84.3709 31.5119L85.3153 36.2385C85.5426 37.376 85.3896 37.6309 84.0952 37.8896C84.0167 37.9052 84.0637 38.1406 84.1422 38.1249C84.809 37.9917 85.6053 37.7918 86.5663 37.5997C87.5273 37.4077 88.3981 37.2745 89.1041 37.1334C89.163 37.1217 89.1159 36.8863 89.0571 36.8981ZM80.3432 28.7067C80.0453 27.2162 80.5358 26.3024 81.8694 26.0359C82.5363 25.9027 83.2815 26.0597 83.5088 27.1972L84.2925 31.1197C84.1395 31.1706 83.9826 31.202 83.865 31.2255C81.9233 31.6135 80.7076 30.5307 80.3432 28.7067Z" fill="#B29D8C"/>
<path d="M108.191 37.8657C106.819 37.717 106.604 37.4724 106.73 36.3193L107.734 27.1141C107.858 25.9808 108.123 25.7681 109.495 25.9168C109.574 25.9255 109.6 25.6869 109.521 25.6783C108.845 25.605 107.884 25.5612 106.949 25.4599C105.816 25.337 104.987 25.1868 104.311 25.1135C104.252 25.1071 104.226 25.3456 104.285 25.3521C105.757 25.5116 105.945 25.8137 105.821 26.9469L105.379 31.0028L98.5586 30.2634L99.0011 26.2076C99.1247 25.0743 99.4136 24.824 100.845 24.9792C100.905 24.9857 100.931 24.7471 100.871 24.7406C100.155 24.663 99.2939 24.63 98.1605 24.5071C97.226 24.4058 96.3576 24.2513 95.6816 24.178C95.6219 24.1716 95.5959 24.4101 95.6555 24.4166C97.0076 24.5632 97.2202 24.8276 97.0966 25.9609L96.0923 35.1661C95.9665 36.3192 95.704 36.512 94.332 36.3633C94.2525 36.3547 94.2264 36.5933 94.306 36.6019C94.982 36.6752 95.8811 36.7324 96.8157 36.8337C97.9491 36.9566 98.7799 37.0869 99.5156 37.1666C99.5752 37.1731 99.6012 36.9345 99.5416 36.928C98.0901 36.7707 97.8753 36.5261 98.0011 35.373L98.5022 30.7803L105.322 31.5197L104.821 36.1123C104.696 37.2655 104.453 37.4604 102.982 37.3009C102.922 37.2945 102.896 37.5331 102.955 37.5395C103.632 37.6128 104.471 37.6636 105.604 37.7864C106.539 37.8877 107.489 38.031 108.165 38.1043C108.245 38.1129 108.271 37.8743 108.191 37.8657Z" fill="#B29D8C"/>
<path d="M121.59 42.7024C120.914 42.4537 120.627 41.73 120.391 39.5973L119.234 28.6437C119.224 28.5548 118.955 28.4769 118.915 28.5262L111.545 36.128C109.87 37.8344 109.221 38.1494 108.207 37.7764C108.095 37.7349 108.011 37.96 108.124 38.0015C108.931 38.2986 109.391 38.3824 110.329 38.7279C111.305 39.0872 111.784 39.3487 112.516 39.6182C112.629 39.6596 112.712 39.4345 112.599 39.3931C111.116 38.8472 110.708 37.7592 111.926 36.4814L114.57 33.7678L117.967 35.0183L118.477 39.8731C118.629 41.2504 118.324 41.5003 117.198 41.0857C117.085 41.0443 117.002 41.2694 117.115 41.3109C117.865 41.5872 118.4 41.6987 119.244 42.0096C119.976 42.2791 120.775 42.6581 121.507 42.9276C121.619 42.969 121.702 42.7439 121.59 42.7024ZM114.957 33.356L117.521 30.7411L117.903 34.4407L114.957 33.356Z" fill="#B29D8C"/>
<path d="M134.851 43.5313C136.445 43.9707 137.765 43.6073 138.519 42.5978C139.488 41.2999 139.048 39.75 137.14 38.3281C136.514 37.862 135.721 37.4204 135.127 36.9783C134.389 36.4286 133.736 35.8668 133.19 35.4605C133.142 35.4246 132.999 35.6169 133.047 35.6528C134.025 36.3817 134.122 36.7532 133.44 37.6665L127.899 45.0853C127.205 46.0147 126.816 45.9998 125.838 45.2708C125.774 45.2231 125.63 45.4153 125.695 45.4631C126.24 45.8694 126.969 46.3631 127.707 46.9128C128.429 47.4505 129.352 48.2875 129.961 48.7416C131.982 50.2472 134.447 50.0886 135.716 48.3901C136.805 46.932 136.472 45.038 134.851 43.5313ZM136.628 38.4454C137.766 39.2938 137.789 40.4331 136.904 41.6188C135.982 42.8526 134.659 43.3879 133.343 42.408C133.311 42.3842 133.055 42.193 132.682 41.8902L134.956 38.8457C135.614 37.9644 135.97 37.9555 136.628 38.4454ZM129.964 48.1699C128.857 47.3454 128.924 46.9215 129.439 46.2325L132.347 42.3388C132.756 42.5935 133.108 42.8564 133.333 43.0237C135.017 44.2784 134.981 45.9975 133.808 47.5678C132.755 48.9779 131.487 49.3051 129.964 48.1699Z" fill="#B29D8C"/>
<path d="M142.759 56.461C141.158 57.2963 139.765 57.0639 138.536 55.7483L137.867 55.032C137.28 54.4034 137.309 53.9942 137.953 53.3943L141.274 50.2995L142.571 51.6882C143.595 52.7846 143.661 53.7345 142.856 54.4843C142.797 54.5389 142.961 54.7143 143.02 54.6597C143.547 54.1689 143.93 53.7297 144.413 53.2798C144.793 52.9253 145.084 52.7091 145.713 52.1229C145.772 52.0683 145.608 51.8929 145.549 51.9475C144.847 52.6019 143.975 52.4301 142.979 51.363L141.655 49.945L144.625 47.1773C145.239 46.6047 145.706 46.6351 146.374 47.3514L146.92 47.9361C147.971 49.0617 148.043 50.2522 147.163 51.5369C147.119 51.5778 147.284 51.725 147.328 51.6841L149.203 49.8825C149.291 49.8007 149.307 49.7305 149.212 49.6282L143.52 43.5323C143.465 43.4739 143.29 43.6375 143.344 43.696C144.231 44.6461 144.206 44.9706 143.372 45.7477L136.597 52.0601C135.749 52.8509 135.438 52.84 134.55 51.8899C134.496 51.8314 134.32 51.995 134.375 52.0535L140.299 58.3978C140.463 58.5732 140.562 58.5626 140.723 58.4126C141.367 57.8127 142.269 57.1087 142.893 56.6637C142.937 56.6228 142.816 56.4347 142.759 56.461Z" fill="#B29D8C"/>
<path d="M155.87 58.7719C153.828 55.4961 149.815 53.8231 146.521 55.8727C143.957 57.4681 142.052 61.1034 144.771 65.4654C145.416 66.5008 146.242 67.4474 147.333 68.2526C147.517 68.3971 147.579 68.3823 147.882 68.2642L150.214 67.1664C150.265 67.1347 150.21 66.9333 150.104 66.9522C147.644 67.3525 146.003 66.7244 145.083 65.2477C143.559 62.8036 144.974 59.4027 148.133 57.4375C150.85 55.7471 153.558 55.9703 155.049 58.3635C156.16 60.1456 156.066 62.1121 154.713 63.8728C154.649 63.9596 154.795 64.0807 154.846 64.049L156.927 62.4718C157.154 62.3069 157.201 62.2307 157.176 61.9637C157.069 61.1115 156.483 59.7563 155.87 58.7719Z" fill="#B29D8C"/>
<path d="M156.072 72.3399C155.893 71.8517 155.669 71.3585 155.408 70.8791L159.07 69.5373C160.141 69.1451 160.486 69.2741 160.982 70.626C161.01 70.7011 161.235 70.6186 161.207 70.5434C160.966 69.8863 160.607 69.0807 160.214 68.0105C159.897 67.1467 159.678 66.375 159.444 65.7366C159.423 65.6803 159.198 65.7629 159.219 65.8192C159.666 67.0397 159.517 67.3288 158.446 67.721L149.752 70.9068C148.663 71.3059 148.373 71.1563 147.926 69.9358C147.898 69.8607 147.673 69.9433 147.7 70.0184C147.935 70.6568 148.275 71.4692 148.592 72.3329C148.902 73.1779 149.258 74.496 149.492 75.1344C150.367 77.519 152.477 78.6841 154.524 77.9341C156.777 77.1084 156.967 74.7809 156.072 72.3399ZM149.793 74.6194C149.318 73.3238 149.718 72.964 150.413 72.7094L154.976 71.0373C155.15 71.3359 155.286 71.6482 155.389 71.9299C156.078 73.8075 155.631 75.3771 153.34 76.2165C151.669 76.8289 150.461 76.4407 149.793 74.6194Z" fill="#B29D8C"/>
<path d="M165.672 91.2863C165.403 87.4357 162.643 84.0824 158.772 84.3565C155.76 84.5698 152.374 86.8948 152.732 92.0223C152.817 93.2393 153.103 94.4621 153.69 95.6837C153.785 95.8975 153.846 95.9132 154.17 95.9505L156.744 96.0689C156.804 96.0647 156.85 95.8609 156.747 95.8281C154.386 95.0329 153.231 93.7112 153.11 91.9755C152.909 89.1025 155.752 86.7558 159.463 86.493C162.655 86.2669 164.943 87.729 165.139 90.5421C165.286 92.6369 164.281 94.3321 162.261 95.2571C162.164 95.3041 162.236 95.4794 162.296 95.4752L164.873 95.0521C165.151 95.0124 165.228 94.9668 165.331 94.7189C165.636 93.9154 165.753 92.4434 165.672 91.2863Z" fill="#B29D8C"/>
<path d="M154.426 100.95L163.493 102.106C164.624 102.25 164.769 102.53 164.652 103.443C164.434 105.149 163.108 106.049 161.005 105.781C158.783 105.497 157.862 104.191 158.027 102.901C158.05 102.723 158.106 102.447 158.196 102.217C158.226 102.14 157.975 102.048 157.943 102.144C157.825 102.432 157.762 102.767 157.724 103.064C157.462 105.107 158.427 107.65 161.175 107.919C163.506 108.136 164.662 106.509 164.973 104.089C165.092 103.156 165.121 101.99 165.202 101.356C165.322 100.423 165.488 99.5978 165.574 98.9233C165.585 98.8439 165.347 98.8136 165.336 98.893C165.171 100.182 164.905 100.37 163.774 100.226L154.588 99.0558C153.437 98.9091 153.247 98.6631 153.413 97.3737C153.423 97.2944 153.185 97.264 153.174 97.3434C153.088 98.0178 153.018 98.8759 152.899 99.8082C152.749 100.979 152.584 101.946 152.475 102.799C152.467 102.858 152.705 102.888 152.713 102.829C152.942 101.044 153.236 100.799 154.426 100.95Z" fill="#B29D8C"/>
<path d="M149.777 113.126C148.513 116.709 150.178 120.708 153.687 121.941C156.725 123.009 160.461 121.799 161.771 118.084C162.849 115.028 162.094 110.735 158 109.296C154.679 108.129 151.055 109.505 149.777 113.126ZM150.004 113.926C150.948 111.248 154.325 110.273 157.967 111.553C161.043 112.634 162.444 114.674 161.566 117.164C160.541 120.068 157.324 120.951 153.852 119.731C150.475 118.544 149.219 116.152 150.004 113.926Z" fill="#B29D8C"/>
<path d="M140.632 131.409C141.435 130.237 142.961 130.196 145.695 130.051C148.346 129.924 149.1 129.862 149.948 128.767L151.34 132.847C151.916 134.501 151.871 136.16 151.188 137.219C151.156 137.269 151.357 137.399 151.39 137.349C151.726 136.828 151.989 136.308 152.618 135.333C153.203 134.425 153.632 133.869 153.979 133.331C154.012 133.28 153.81 133.151 153.777 133.201C153.192 134.109 152.338 133.774 151.602 131.851L150.236 128.358L150.312 128.24C150.518 127.921 150.756 127.551 151.021 127.103L154.554 129.374C155.513 129.99 155.619 130.343 154.882 131.486C154.85 131.537 155.052 131.667 155.084 131.616C155.463 131.028 155.9 130.239 156.474 129.348C156.984 128.558 157.489 127.884 157.857 127.313C157.901 127.245 157.699 127.116 157.655 127.183C156.919 128.326 156.587 128.398 155.628 127.781L147.838 122.775C146.862 122.147 146.807 121.827 147.554 120.667C147.598 120.6 147.396 120.47 147.352 120.537C146.984 121.109 146.552 121.853 146.043 122.643C145.469 123.534 144.958 124.252 144.568 124.857C144.536 124.908 144.738 125.038 144.77 124.987C145.518 123.827 145.822 123.761 146.798 124.389L150.735 126.919L150.692 126.986C149.922 128.18 149.327 128.106 146.398 128.221C142.321 128.382 142.25 128.455 142.001 128.842L140.43 131.279C140.398 131.33 140.599 131.46 140.632 131.409Z" fill="#B29D8C"/>
<path d="M139.789 149.414C142.736 146.921 143.809 142.712 141.301 139.753C139.348 137.449 135.471 136.092 131.547 139.411C130.615 140.199 129.798 141.152 129.159 142.347C129.043 142.551 129.066 142.609 129.227 142.892L130.654 145.039C130.693 145.084 130.884 145.001 130.85 144.899C130.096 142.524 130.479 140.812 131.807 139.688C134.006 137.828 137.58 138.735 139.985 141.572C142.054 144.014 142.227 146.723 140.074 148.544C138.471 149.9 136.51 150.092 134.57 149.009C134.474 148.958 134.376 149.12 134.415 149.166L136.279 150.995C136.475 151.195 136.558 151.231 136.818 151.167C137.647 150.938 138.904 150.163 139.789 149.414Z" fill="#B29D8C"/>
<path d="M126.978 143.104C123.84 144.742 127.012 150.982 128.856 154.51C129.328 155.414 129.323 155.619 128.348 156.128L126.663 157.007C125.635 157.544 125.6 157.563 125.025 156.464L120.819 148.417C120.281 147.389 120.375 147.092 121.616 146.444C121.669 146.416 121.558 146.204 121.504 146.231C120.866 146.565 120.087 147.016 119.165 147.498C118.332 147.933 117.551 148.295 116.93 148.619C116.877 148.647 116.988 148.859 117.041 148.832C118.282 148.184 118.597 148.268 119.134 149.296L123.424 157.502C123.952 158.513 123.851 158.836 122.61 159.484C122.556 159.512 122.668 159.725 122.721 159.697L132.136 154.783C132.206 154.746 132.095 154.534 132.024 154.571C130.34 155.45 129.64 154.845 128.547 152.753C127.166 150.112 125.524 145.848 127.581 144.775L127.953 144.58C128.396 144.349 128.712 143.959 128.415 143.392C128.119 142.825 127.563 142.799 126.978 143.104Z" fill="#B29D8C"/>
<path d="M108.106 164.12C108.819 163.923 109.169 163.763 109.959 163.544C110.923 163.277 111.421 163.201 112.096 163.014C112.153 162.998 112.089 162.767 112.031 162.783C110.779 163.13 110.11 162.589 110.338 161.468L111.467 155.364L116.099 160.389C116.813 161.167 116.387 161.575 115.404 161.848C115.327 161.869 115.391 162.101 115.468 162.079C115.989 161.935 116.551 161.717 118.112 161.284C119.326 160.947 119.477 160.968 120.094 160.797C120.171 160.775 120.107 160.544 120.03 160.565C119.259 160.779 118.786 160.495 118.031 159.646L111.875 153.092C112.329 151.286 113.79 149.822 115.486 149.352C115.563 149.33 115.499 149.099 115.422 149.12L112.011 150.066C111.452 150.221 111.767 150.757 111.325 153.204L109.793 161.598C109.53 162.895 108.948 163.638 108.042 163.889C107.965 163.91 108.029 164.142 108.106 164.12Z" fill="#B29D8C"/>
<path d="M85.5344 152.813C86.9545 152.852 87.7969 154.071 89.4213 156.329C90.9655 158.468 91.3467 159.087 92.6869 159.206L90.1134 162.588C88.9364 164.13 87.7377 164.831 86.3777 164.832C86.2977 164.832 86.2982 165.072 86.3782 165.072C86.9982 165.072 87.5781 165.011 88.7181 165.01C89.7981 165.009 90.6782 165.068 91.3182 165.067C91.3782 165.067 91.3778 164.827 91.3178 164.827C90.0177 164.829 90.0957 163.768 91.2923 162.007L93.167 159.225L93.327 159.225C93.707 159.225 94.1669 159.204 94.7269 159.184L94.7351 163.404C94.7373 164.544 94.4378 164.824 93.0578 164.826C92.9978 164.826 92.9983 165.066 93.0583 165.066C93.7583 165.065 94.7382 165.004 95.7782 165.003C96.6782 165.002 97.5983 165.061 98.2783 165.06C98.3583 165.06 98.3579 164.82 98.2779 164.82C96.9178 164.822 96.6174 164.582 96.6152 163.442L96.6069 159.182C97.167 159.202 97.607 159.221 98.007 159.221L98.167 159.221L100.093 162.059C101.296 163.797 101.338 164.817 100.038 164.819C99.9779 164.819 99.9784 165.059 100.038 165.059C100.678 165.058 101.558 164.997 102.618 164.996C103.778 164.995 104.358 165.054 104.978 165.054C105.058 165.054 105.058 164.814 104.978 164.814C103.618 164.815 102.397 164.116 101.234 162.577L98.627 159.2C99.9668 159.079 100.366 158.478 101.901 156.317C103.517 154.055 104.355 152.834 105.775 152.793C105.855 152.793 105.854 152.553 105.774 152.553L102.874 152.556C102.414 152.556 102.334 152.576 100.001 155.939C98.3253 158.32 98.1463 158.861 96.7663 158.862L96.6063 158.862L96.5973 154.182C96.595 153.022 96.8346 152.802 98.2146 152.801C98.2946 152.8 98.2941 152.56 98.2141 152.561C97.5341 152.561 96.6542 152.602 95.7542 152.603C94.7142 152.604 93.8141 152.565 93.1141 152.566C93.0341 152.566 93.0345 152.806 93.1145 152.806C94.4946 152.804 94.715 153.024 94.7172 154.184L94.7263 158.864L94.5663 158.864C93.1863 158.865 93.0052 158.326 91.3205 155.927C88.9741 152.59 88.894 152.57 88.434 152.57L85.534 152.573C85.454 152.573 85.4544 152.813 85.5344 152.813Z" fill="#B29D8C"/>
<path d="M78.8503 157.556C79.3533 157.688 79.8857 157.787 80.4284 157.847L79.4538 161.54C79.1935 162.526 78.89 162.736 77.9035 162.477L76.9943 162.238C75.5823 161.867 74.7826 160.664 74.9386 158.74C74.9345 158.677 74.7218 158.621 74.7065 158.679L74.1651 161.515C74.0732 161.863 74.0966 161.931 74.4061 162.012L82.3369 164.097C82.3949 164.112 82.4562 163.88 82.3981 163.865C81.1408 163.535 80.9893 163.247 81.2801 162.144L83.6427 153.191C83.9387 152.069 84.2269 151.918 85.4843 152.248C85.5616 152.269 85.6229 152.037 85.5455 152.016C84.8878 151.843 84.0265 151.658 83.1367 151.424C82.2663 151.196 80.9815 150.734 80.3238 150.561C77.8672 149.915 75.7039 150.98 75.1477 153.088C74.5353 155.408 76.3357 156.895 78.8503 157.556ZM80.574 151.102C81.9087 151.453 81.9746 151.987 81.7858 152.703L80.5458 157.402C80.2016 157.374 79.8677 157.306 79.5775 157.23C77.6432 156.722 76.6115 155.458 77.234 153.099C77.6882 151.378 78.6977 150.609 80.574 151.102Z" fill="#B29D8C"/>
<path d="M67.2946 153.432C67.7531 153.678 68.2482 153.897 68.7622 154.082L66.9183 157.518C66.3793 158.522 66.0353 158.656 64.7656 157.977C64.695 157.939 64.5816 158.15 64.6521 158.188C65.2693 158.518 66.0736 158.881 67.0788 159.418C67.89 159.853 68.5671 160.283 69.1667 160.604C69.2196 160.632 69.333 160.42 69.2801 160.392C68.1339 159.779 68.0533 159.464 68.5923 158.459L72.9704 150.3C73.5188 149.278 73.8344 149.197 74.9807 149.81C75.0513 149.848 75.1647 149.637 75.0942 149.599C74.4946 149.278 73.6997 148.898 72.8885 148.464C72.095 148.039 70.9525 147.292 70.3529 146.971C68.1133 145.773 65.7615 146.306 64.7308 148.227C63.5961 150.342 65.0021 152.206 67.2946 153.432ZM61.102 142.384C62.2659 143.007 62.3382 143.295 61.7898 144.317L57.4306 152.442C56.8917 153.446 56.5653 153.589 55.419 152.976C55.3661 152.947 55.2526 153.159 55.3055 153.187C55.8875 153.499 56.6742 153.851 57.5559 154.323C58.3848 154.767 59.1147 155.225 59.7143 155.546C59.7848 155.584 59.8983 155.372 59.8278 155.335C58.6815 154.721 58.5833 154.397 59.1223 153.392L63.5004 145.233C64.0488 144.211 64.3644 144.13 65.5107 144.743C65.5812 144.781 65.6947 144.57 65.6242 144.532C65.0246 144.211 64.2474 143.841 63.4185 143.397C62.5368 142.925 61.8326 142.503 61.2154 142.173C61.1625 142.145 61.049 142.356 61.102 142.384ZM70.4705 147.556C71.6873 148.207 71.6273 148.742 71.2774 149.394L68.9796 153.676C68.6515 153.569 68.3422 153.426 68.0777 153.284C66.3142 152.341 65.6042 150.872 66.7578 148.722C67.5993 147.154 68.7599 146.641 70.4705 147.556Z" fill="#B29D8C"/>
</svg>
