<svg width="148" height="148" viewBox="0 0 148 148" fill="none" xmlns="http://www.w3.org/2000/svg">
<path d="M116.011 83.364C115.607 85.3962 115.478 87.7685 115.514 89.8879C115.547 90.1514 115.558 90.2393 115.778 90.2829C116.217 90.3701 116.393 90.2051 118.233 90.5704C121.144 91.1483 121.462 91.2687 121.249 92.1969C121.211 92.3892 121.601 92.438 121.634 92.2733C121.977 89.9721 122.349 88.1046 123.016 85.6108C123.054 85.4186 122.614 85.3313 122.571 85.551C122.068 88.0776 121.728 88.2098 119.092 87.6865C116.263 87.1249 115.927 86.2304 116.342 84.1432C117.172 79.9689 121.546 77.6401 127.094 78.7413C131.488 79.6136 133.989 82.1085 133.23 85.9257C132.652 88.8367 130.485 90.833 127.46 91.5457C127.306 91.6008 127.312 91.8589 127.422 91.8807L131.31 92.2815C131.7 92.3303 131.848 92.3027 132.024 91.9949C132.709 90.9891 133.377 89.0663 133.704 87.4186C134.884 81.4867 132.094 76.2798 126.711 75.2112C121.849 74.2462 117.251 77.13 116.011 83.364Z" fill="#212121"/>
<path d="M104.965 106.323C106.203 104.456 109.503 103.987 117.598 104.14C117.495 106.019 118.207 107.935 119.678 108.908C121.546 110.144 123.727 109.237 125.629 106.366C126.31 105.339 126.943 104.08 127.562 103.146C128.305 102.026 129.04 101.069 129.582 100.252C129.628 100.182 129.348 99.9966 129.301 100.067C128.358 101.49 127.923 101.538 126.592 100.657L115.781 93.5027C114.427 92.6064 114.34 92.1797 115.284 90.7561C115.346 90.6627 115.065 90.4773 115.003 90.5706C114.462 91.3875 113.828 92.4453 113.085 93.5655C112.296 94.7558 111.6 95.7051 111.059 96.5219C111.012 96.5919 111.292 96.7774 111.339 96.7073C112.298 95.2604 112.694 95.2203 114.048 96.1166L119.465 99.7016C119.195 100.06 118.885 100.526 118.591 100.97C118.467 101.156 118.359 101.32 118.259 101.522C111.934 101.13 107.903 101.283 107.439 101.983L104.685 106.137C104.638 106.207 104.919 106.393 104.965 106.323ZM120.143 100.15L124.812 103.24C125.887 103.951 126.083 104.618 125.371 105.692C124.551 106.929 123.325 107.46 120.57 105.637C118.282 104.123 118.069 103.075 119.152 101.442C119.399 101.068 119.794 100.524 120.143 100.15Z" fill="#212121"/>
<path d="M90.6194 115.569C91.3805 115.045 92.457 115.324 95.051 116.768L108.637 124.139C108.763 124.223 109.093 123.962 109.052 123.854L106.475 109.413C105.855 105.998 106.002 104.979 107.248 104.121C107.363 104.042 107.172 103.765 107.057 103.845C106.019 104.559 105.552 105.017 104.353 105.842C103.177 106.652 102.491 106.989 101.568 107.624C101.43 107.719 101.621 107.996 101.759 107.9C103.489 106.71 105.252 107.195 105.693 109.611L106.551 114.357L102.446 117.183L96.7891 114.109C94.9949 113.135 94.8861 112.632 96.1546 111.759C96.2929 111.663 96.1022 111.387 95.9638 111.482C95.0182 112.133 94.4361 112.67 93.3752 113.4C92.4526 114.035 91.3512 114.657 90.4287 115.293C90.2903 115.388 90.4811 115.664 90.6194 115.569ZM106.697 115.209L107.57 119.978L103.214 117.607L106.697 115.209Z" fill="#212121"/>
<path d="M76.5266 135.631C77.3219 135.467 78.292 135.181 79.2792 134.977C80.2938 134.767 81.1609 134.674 81.9561 134.51C82.0384 134.493 81.9704 134.164 81.8881 134.181C80.4622 134.475 79.3569 133.417 78.9544 131.47L77.123 122.613L88.8732 131.595C89.9662 132.456 90.073 132.834 90.5391 132.738C91.115 132.619 92.2279 132.332 93.5442 132.06C94.2023 131.925 95.0363 131.81 95.7493 131.662C95.8315 131.645 95.7635 131.316 95.6812 131.333C94.8037 131.514 93.9565 131.289 92.4447 130.2L90.0463 118.602C89.6437 116.655 90.4089 115.239 91.9993 114.911C92.109 114.888 92.041 114.559 91.9313 114.582C91.0538 114.763 89.9957 115.038 88.8988 115.265C87.8842 115.474 87.0228 115.595 86.2276 115.759C86.1453 115.776 86.2133 116.105 86.2956 116.088C87.7215 115.794 88.8211 116.825 89.2237 118.771L91.4293 129.438L75.5407 117.451C75.4745 117.407 75.2334 117.486 75.2561 117.595L78.1591 131.634C78.5617 133.581 77.9119 135.002 76.4586 135.302C76.3763 135.319 76.4444 135.648 76.5266 135.631Z" fill="#212121"/>
<path d="M66.376 133.854C65.3265 133.679 65.1702 133.255 65.3733 132.04L67.511 119.254C67.7787 117.652 68.2162 117.412 70.1494 117.735C70.2599 117.754 70.3153 117.422 70.2048 117.404C69.1553 117.229 67.8205 117.063 66.3567 116.818C64.8101 116.56 63.5489 116.293 62.4994 116.118C62.389 116.099 62.3336 116.431 62.444 116.449C64.4325 116.781 64.6855 117.135 64.4177 118.737L62.2893 131.469C62.077 132.739 61.7914 133.089 60.6867 132.904C58.5325 132.545 57.1292 130.92 57.0617 127.928C57.0525 127.812 56.7763 127.766 56.7579 127.877C56.6009 128.816 55.8903 132.217 55.5491 133.409C55.526 133.547 55.8298 133.598 55.8805 133.465C56.1708 132.917 56.8244 132.913 58.1501 133.134C59.5862 133.374 60.9258 133.512 63.4942 133.941C65.5656 134.286 67.4666 134.632 69.0316 134.95C69.5563 135.038 70.5966 135.268 70.5042 135.82C70.4719 136.014 70.7803 136.037 70.808 135.871C71.0343 134.518 71.8321 131.443 72.1134 130.44C72.1319 130.329 71.8603 130.256 71.8143 130.362C70.4504 132.916 68.6406 134.232 66.376 133.854Z" fill="#212121"/>
<path d="M38.2903 123.643C39.0245 124.106 39.9931 124.617 41.1062 125.319C42.3141 126.081 43.3824 126.854 44.3534 127.466C44.4245 127.511 44.6039 127.227 44.5329 127.182C42.8513 126.122 42.7228 125.644 43.5751 124.294L52.8159 109.664C54.4158 107.131 55.3218 106.379 55.985 106.797C56.7429 107.275 55.2313 109.301 56.7708 110.272C57.6471 110.824 58.4061 110.409 58.7649 109.841C59.3481 108.918 58.7858 107.868 57.6253 107.136C54.499 105.165 51.3358 106.083 49.0929 109.634L40.9288 122.559C40.0765 123.909 39.6776 124.121 38.4698 123.359C38.375 123.299 38.1956 123.583 38.2903 123.643Z" fill="#212121"/>
<path d="M34.9359 102.689C37.3186 101.533 39.3298 101.973 41.3444 104.075L41.9836 104.743C42.6035 105.39 42.5105 106.021 41.7214 106.776L37.1486 111.15L35.5602 109.492C34.0105 107.875 33.8849 106.367 34.9775 105.322C35.0382 105.264 34.8057 105.022 34.745 105.08C33.9762 105.815 33.4273 106.456 32.7393 107.115C32.193 107.637 31.7892 107.985 30.8989 108.836C30.818 108.914 31.0311 109.136 31.112 109.059C32.063 108.149 33.444 108.417 34.9743 110.014L36.582 111.692L32.4544 115.64C31.726 116.337 31.0333 116.302 30.2585 115.493L29.6774 114.887C28.0696 113.209 27.8488 111.521 29.0009 109.567C29.0431 109.449 28.8089 109.286 28.7482 109.344L26.0959 111.958C25.9745 112.074 25.9525 112.173 26.1075 112.335L34.3207 120.907C34.3982 120.988 34.641 120.756 34.5635 120.675C33.3819 119.442 33.431 119.007 34.5843 117.904L43.9525 108.943C45.126 107.82 45.5423 107.809 46.7239 109.043C46.8014 109.124 47.0442 108.891 46.9667 108.81L38.4048 99.8741C38.1724 99.6314 38.0333 99.6482 37.8108 99.8611C36.9002 100.732 35.6298 101.754 34.7439 102.407C34.6832 102.465 34.8355 102.746 34.9359 102.689Z" fill="#212121"/>
<path d="M12.1823 83.7958C12.5236 84.6844 12.7828 85.1249 13.1543 86.092C13.6563 87.3989 13.8489 88.1347 14.2003 89.0495C14.2405 89.1541 14.5542 89.0337 14.514 88.9292C14.012 87.6223 15.1768 86.5159 17.3302 86.4997L27.6448 86.4126L22.2353 92.0857L19.2756 92.1112C16.883 92.1291 15.5281 91.5691 15.0763 90.3929C15.0462 90.3145 14.7324 90.4348 14.7626 90.5132C15.0638 91.2974 15.2928 91.6594 15.6241 92.5219C16.2265 94.0902 15.9975 93.7282 16.1983 94.251C16.2384 94.3555 16.5522 94.2352 16.512 94.1307C16.1807 93.2681 17.1218 92.9072 19.4884 92.8993L21.491 92.881L19.5014 94.9635C17.9182 96.6202 17.5361 96.7968 17.1746 95.8558C17.1345 95.7512 16.8208 95.8715 16.8609 95.9761C17.0818 96.5511 17.4012 97.1484 18.1542 99.1087C18.5759 100.207 18.4974 100.237 18.6982 100.759C18.7384 100.864 19.0521 100.744 19.012 100.639C18.771 100.012 19.2861 99.2444 20.2256 98.2544L25.2549 92.9969L30.201 92.9894L22.0214 101.524C20.4382 103.181 20.016 103.253 19.4638 101.815C19.4236 101.711 19.1099 101.831 19.15 101.936C19.4211 102.641 19.7907 103.369 20.6843 105.696C21.1863 107.002 21.1078 107.032 21.3388 107.634C21.3789 107.738 21.6926 107.618 21.6525 107.513C21.271 106.52 21.4843 106.138 22.7456 104.815L34.329 92.7258C34.4397 92.6234 34.259 92.1529 34.1082 92.1507L26.0092 92.2278L31.809 86.1651C31.9196 86.0627 31.7389 85.5922 31.5881 85.5901L16.8158 85.7074C14.6263 85.7074 12.988 84.9562 12.496 83.6754C12.4659 83.597 12.1522 83.7173 12.1823 83.7958Z" fill="#212121"/>
<path d="M26.0183 66.2373C28.5084 67.1357 29.596 68.8823 29.4942 71.7925L29.4619 72.7159C29.4306 73.6114 28.9132 73.9858 27.8218 73.9481L21.4976 73.7298L21.5779 71.4352C21.6562 69.1965 22.6487 68.0541 24.1598 68.1063C24.2438 68.1092 24.2555 67.7734 24.1716 67.7705C23.1082 67.7338 22.2657 67.7887 21.3143 67.7559C20.5588 67.7298 20.0281 67.6835 18.7968 67.641C18.6849 67.6371 18.6741 67.9449 18.786 67.9488C20.1012 67.9942 20.8726 69.1695 20.7953 71.3801L20.7141 73.7027L15.0055 73.5056C13.9981 73.4709 13.54 72.9507 13.5791 71.8314L13.6085 70.9919C13.6897 68.6694 14.7451 67.333 16.9493 66.7927C17.0632 66.7406 17.017 66.4588 16.9331 66.4559L13.2093 66.3834C13.0414 66.3776 12.9555 66.4307 12.9477 66.6546L12.5327 78.5193C12.5288 78.6312 12.8646 78.6428 12.8685 78.5309C12.9282 76.8239 13.2738 76.5557 14.8688 76.6108L27.8251 77.058C29.4481 77.1141 29.7462 77.4045 29.6865 79.1115C29.6826 79.2234 30.0184 79.235 30.0223 79.1231L30.4549 66.7546C30.4666 66.4188 30.3576 66.331 30.0498 66.3204C28.7906 66.2769 27.1724 66.081 26.086 65.9034C26.002 65.9005 25.9073 66.2054 26.0183 66.2373Z" fill="#212121"/>
<path d="M17.6489 56.3752C16.1423 55.8487 15.8911 55.4644 16.4554 53.8522C16.4924 53.7465 16.1752 53.6357 16.1382 53.7414C15.8237 54.64 15.5052 55.8041 15.0427 57.1255C14.5988 58.394 14.0847 59.6084 13.7887 60.4541C13.761 60.5334 14.0782 60.6443 14.1059 60.565C14.6702 58.9529 15.0891 58.773 16.5958 59.2995L28.8341 63.576C30.3672 64.1117 30.5562 64.504 29.992 66.1161C29.9642 66.1954 30.2814 66.3062 30.3092 66.2269L34.675 53.7529C34.7768 53.4622 34.7081 53.3195 34.4173 53.2179C33.0428 52.7376 31.2652 51.9682 30.1391 51.456C30.0334 51.4191 29.8881 51.6649 29.9845 51.7283C32.238 53.2572 33.0654 55.9785 32.1035 58.727L31.789 59.6256C31.3358 60.9206 31.0503 61.0581 29.7551 60.6055L17.6489 56.3752Z" fill="#212121"/>
<path d="M45.7075 38.7743C44.3048 40.5207 40.9755 40.6863 32.9278 39.7958C33.2021 37.9341 32.6673 35.9618 31.2911 34.8583C29.5436 33.4569 27.2896 34.1617 25.1329 36.8468C24.3614 37.8073 23.6157 39.0039 22.9143 39.8771C22.0727 40.925 21.2532 41.8111 20.6395 42.5752C20.5869 42.6406 20.849 42.8509 20.9016 42.7854C21.9712 41.4537 22.4087 41.4456 23.6538 42.4441L33.7674 50.5545C35.0344 51.5705 35.0818 52.0033 34.0122 53.335C33.9421 53.4223 34.2042 53.6325 34.2743 53.5452C34.888 52.7811 35.6158 51.7856 36.4575 50.7377C37.3517 49.6244 38.1318 48.7426 38.7455 47.9785C38.7981 47.913 38.536 47.7028 38.4834 47.7683C37.3963 49.1218 36.9982 49.1256 35.7313 48.1096L30.6635 44.0456C30.9659 43.7138 31.3166 43.2772 31.6497 42.8625C31.79 42.6878 31.9128 42.535 32.0312 42.3429C38.2939 43.3094 42.3225 43.5252 42.8486 42.8703L45.9696 38.9846C46.0223 38.9191 45.7601 38.7089 45.7075 38.7743ZM30.03 43.5376L25.6613 40.0342C24.6565 39.2284 24.522 38.5463 25.3286 37.5421C26.2579 36.3851 27.5272 35.9674 30.1048 38.0344C32.2454 39.7511 32.3618 40.8134 31.1344 42.3415C30.8539 42.6908 30.4112 43.1972 30.03 43.5376Z" fill="#212121"/>
<path d="M49.8987 17.0737C49.1769 17.5034 48.859 17.7904 48.065 18.263C46.5492 19.1652 45.7844 19.5227 44.7739 20.1242C44.6777 20.1815 44.8497 20.4701 44.946 20.4128C46.4377 19.5249 47.448 20.618 47.4504 23.0278L47.488 28.1213L41.0946 24.8885C40.001 24.3664 39.7249 23.5206 40.6632 22.9621C40.7354 22.9191 40.5634 22.6305 40.4912 22.6735C39.625 23.1891 37.8635 24.3353 36.5161 25.1373C36.0349 25.4238 35.4626 25.6667 34.9814 25.9531C34.8852 26.0104 35.0572 26.299 35.1535 26.2417C35.6587 25.941 36.6576 26.0307 39.1085 27.2438L45.8762 30.6122L48.7726 35.4703C49.6042 36.8652 49.4732 37.3016 48.0055 38.1752C47.9333 38.2182 48.1054 38.5068 48.1776 38.4638C49.0197 37.9626 50.0737 37.27 51.2286 36.5826C52.4316 35.8665 53.4708 35.3131 54.3129 34.8118C54.4092 34.7545 54.2371 34.4659 54.1409 34.5232C52.6491 35.4112 52.2749 35.2755 51.4432 33.8806L48.2457 28.5174L48.2531 22.8433C48.2512 20.2702 49.0843 17.9495 50.0708 17.3623C50.143 17.3194 49.9709 17.0308 49.8987 17.0737Z" fill="#212121"/>
<path d="M65.6956 16.1893C65.5377 14.4887 66.6057 13.5741 67.9997 13.4449C70.9829 13.1682 72.3692 16.8921 72.9008 17.7708C72.9669 17.8771 73.2101 17.7702 73.1997 17.6587L72.819 13.5603C72.7983 13.3373 72.727 13.1752 72.349 13.0415C71.5373 12.7793 70.0337 12.6376 68.6955 12.7617C65.9074 13.0202 62.9675 14.6708 63.2575 17.7933C63.488 20.2747 65.5257 21.323 67.5965 22.4245C69.6977 23.5512 71.8547 24.6728 72.0981 27.2936C72.2924 29.3846 71.0617 30.0611 69.7792 30.18C67.1305 30.4257 65.3933 27.4655 64.0327 25.2295C63.9639 25.0953 63.6877 25.1491 63.7311 25.3137L64.2266 29.7389C64.2576 30.0735 64.3769 30.1468 64.5546 30.2428C65.2476 30.7409 67.4462 31.0994 69.119 30.9443C72.5483 30.6262 74.9547 28.3784 74.6802 25.4231C74.4316 22.7467 72.1553 21.5518 69.94 20.4074C67.8718 19.3338 65.8925 18.3082 65.6956 16.1893Z" fill="#212121"/>
<path d="M84.1484 14.3177C85.187 14.5487 85.3204 14.9799 85.0525 16.1825L82.2338 28.8363C81.8807 30.4215 81.4311 30.637 79.5178 30.2115C79.4085 30.1872 79.3354 30.5151 79.4448 30.5394C80.4834 30.7704 81.8075 31.0075 83.2561 31.3297C84.7867 31.6701 86.0318 32.0044 87.0704 32.2354C87.1798 32.2597 87.2528 31.9317 87.1435 31.9074C85.1756 31.4698 84.9419 31.1023 85.295 29.5171L88.1016 16.9179C88.3816 15.6607 88.6855 15.3267 89.7788 15.5699C91.9107 16.044 93.225 17.7419 93.1324 20.7331C93.1354 20.8485 93.4087 20.9093 93.433 20.8C93.64 19.8707 94.5316 16.5122 94.9361 15.3401C94.9666 15.2034 94.6659 15.1365 94.6082 15.2671C94.289 15.7985 93.636 15.768 92.324 15.4762C90.9028 15.1601 89.5726 14.9503 87.0307 14.385C84.9807 13.9291 83.1009 13.4824 81.5552 13.0812C81.0358 12.9657 80.0094 12.6801 80.1312 12.1335C80.1738 11.9422 79.867 11.9026 79.8305 12.0666C79.5322 13.4058 78.5709 16.4333 78.2363 17.4202C78.212 17.5295 78.4792 17.6176 78.5309 17.5144C80.0295 15.0366 81.9071 13.8192 84.1484 14.3177Z" fill="#212121"/>
<path d="M97.5291 37.7636C101.922 40.7643 107.937 39.9562 110.878 35.6579C113.423 31.9373 113.138 26.4529 108.583 23.3417C104.838 20.7832 98.7532 20.2552 95.3223 25.2699C92.5397 29.3371 93.0899 34.7314 97.5291 37.7636ZM98.6874 37.7071C95.6585 35.6382 95.6524 30.8868 98.7512 26.3574C101.312 22.6137 104.411 21.4072 107.232 23.3339C110.584 25.6239 110.469 30.1566 107.575 34.3855C104.761 38.4989 101.254 39.4601 98.6874 37.7071Z" fill="#212121"/>
<path d="M115.976 58.1771C114.752 56.301 115.631 53.0884 118.985 45.7248C120.67 46.5654 122.712 46.6722 124.19 45.7095C126.067 44.487 126.099 42.1272 124.217 39.2427C123.544 38.2108 122.638 37.13 122.026 36.1919C121.292 35.0663 120.705 34.012 120.169 33.1912C120.123 33.1209 119.842 33.3043 119.888 33.3746C120.821 34.8051 120.692 35.223 119.355 36.0941L108.492 43.1693C107.131 44.0556 106.705 43.9658 105.772 42.5353C105.71 42.4414 105.429 42.6248 105.49 42.7186C106.025 43.5394 106.746 44.5407 107.48 45.6664C108.26 46.8624 108.856 47.8779 109.391 48.6987C109.437 48.769 109.719 48.5856 109.673 48.5153C108.724 47.0613 108.845 46.6822 110.205 45.7958L115.649 42.2506C115.87 42.6411 116.176 43.1101 116.467 43.5557C116.589 43.7433 116.696 43.9074 116.842 44.0798C113.972 49.7249 112.512 53.4827 112.971 54.1862L115.694 58.3605C115.74 58.4309 116.022 58.2475 115.976 58.1771ZM116.329 41.8074L121.022 38.7511C122.101 38.0482 122.791 38.1331 123.495 39.2118C124.306 40.4547 124.308 41.7901 121.539 43.5933C119.24 45.0909 118.193 44.8703 117.123 43.2287C116.878 42.8535 116.534 42.2754 116.329 41.8074Z" fill="#212121"/>
<path d="M121.898 68.4652C119.258 68.2599 117.745 66.8649 117.068 64.0325L116.854 63.1338C116.646 62.2623 117.045 61.7641 118.107 61.5109L124.262 60.0432L124.796 62.2764C125.316 64.4551 124.663 65.8198 123.192 66.1704C123.111 66.1899 123.189 66.5167 123.27 66.4973C124.305 66.2505 125.103 65.974 126.029 65.7532C126.764 65.5778 127.288 65.4817 128.487 65.1959C128.596 65.17 128.524 64.8704 128.415 64.8964C127.135 65.2016 126.079 64.2733 125.565 62.1218L125.025 59.8614L130.581 58.5366C131.562 58.3028 132.142 58.6826 132.402 59.772L132.597 60.589C133.137 62.8494 132.475 64.4177 130.494 65.5234C130.398 65.6038 130.517 65.8632 130.599 65.8437L134.209 64.9255C134.372 64.8866 134.441 64.8126 134.389 64.5947L131.631 53.0475C131.605 52.9385 131.278 53.0165 131.304 53.1254C131.701 54.7867 131.439 55.1369 129.887 55.5071L117.276 58.5138C115.696 58.8905 115.332 58.6896 114.935 57.0283C114.909 56.9194 114.582 56.9973 114.608 57.1062L117.483 69.1437C117.561 69.4705 117.689 69.5263 117.989 69.4548C119.215 69.1626 120.827 68.9221 121.922 68.805C122.003 68.7855 122.013 68.4665 121.898 68.4652Z" fill="#212121"/>
</svg>
