<svg width="23" height="26" viewBox="0 0 23 26" fill="none" xmlns="http://www.w3.org/2000/svg">
<path d="M17.0625 8.09703V5.6964C17.0625 4.94834 16.9154 4.2076 16.6296 3.51648C16.3437 2.82536 15.9248 2.1974 15.3967 1.66844C14.8685 1.13948 14.2416 0.719883 13.5515 0.433613C12.8615 0.147342 12.1219 0 11.375 0C10.6281 0 9.88853 0.147342 9.19849 0.433613C8.50845 0.719883 7.88146 1.13948 7.35333 1.66844C6.8252 2.1974 6.40626 2.82536 6.12044 3.51648C5.83461 4.2076 5.6875 4.94834 5.6875 5.6964V11.3928C5.6875 11.6086 5.7731 11.8156 5.92548 11.9682C6.07785 12.1208 6.28451 12.2066 6.5 12.2066C6.71549 12.2066 6.92215 12.1208 7.07452 11.9682C7.2269 11.8156 7.3125 11.6086 7.3125 11.3928V9.72457L15.4375 9.72458V8.09704L7.3125 8.09703V5.6964C7.3125 4.61727 7.74051 3.58234 8.50238 2.81928C9.26425 2.05623 10.2976 1.62754 11.375 1.62754C12.4524 1.62754 13.4858 2.05623 14.2476 2.81928C15.0095 3.58234 15.4375 4.61727 15.4375 5.6964V11.3521C15.4375 11.5679 15.5231 11.7749 15.6755 11.9275C15.8278 12.0801 16.0345 12.1659 16.25 12.1659C16.4655 12.1659 16.6722 12.0801 16.8245 11.9275C16.9769 11.7749 17.0625 11.5679 17.0625 11.3521V9.72457H21.125V24.3725H1.625V9.72457L5.6875 9.72458V8.09704L0 8.09703V24.4457C0 24.8579 0.1635 25.2533 0.454533 25.5448C0.745566 25.8362 1.14029 26 1.55187 26H21.1981C21.6097 26 22.0044 25.8362 22.2955 25.5448C22.5865 25.2533 22.75 24.8579 22.75 24.4457V8.09703H17.0625Z" fill="#212121"/>
</svg>
