<svg width="26" height="26" viewBox="0 0 26 26" fill="none" xmlns="http://www.w3.org/2000/svg">
<g clip-path="url(#clip0)">
<path d="M13.0009 25.9998C20.1805 25.9998 26.0007 20.1795 26.0007 12.9999C26.0007 5.82025 20.1805 0 13.0009 0C5.82122 0 0.000976562 5.82025 0.000976562 12.9999C0.000976562 20.1795 5.82122 25.9998 13.0009 25.9998Z" fill="#55ACEE"/>
<path d="M20.9641 9.34387C20.407 9.5909 19.8078 9.75798 19.1793 9.8326C19.821 9.44815 20.3134 8.83985 20.5458 8.11382C19.9454 8.47 19.2801 8.72838 18.5726 8.86765C18.0058 8.26398 17.1982 7.88672 16.3039 7.88672C14.5881 7.88672 13.1966 9.27829 13.1966 10.9941C13.1966 11.2376 13.2242 11.4747 13.2775 11.7022C10.695 11.5727 8.40522 10.3357 6.87252 8.45517C6.6051 8.914 6.45169 9.44815 6.45169 10.0175C6.45169 11.0953 7.00067 12.0468 7.83399 12.6039C7.32487 12.5879 6.84541 12.4482 6.42666 12.2148C6.42643 12.228 6.42643 12.2413 6.42643 12.2542C6.42643 13.7598 7.49798 15.0156 8.91921 15.3009C8.65874 15.3722 8.38367 15.41 8.10072 15.41C7.90004 15.41 7.70561 15.3908 7.51605 15.3546C7.91139 16.5888 9.05871 17.4873 10.4188 17.5125C9.3551 18.3461 8.01544 18.8427 6.55922 18.8427C6.30894 18.8427 6.06099 18.8281 5.81836 18.7991C7.19278 19.6811 8.82651 20.1953 10.5812 20.1953C16.2967 20.1953 19.4224 15.4605 19.4224 11.3539C19.4224 11.2193 19.4194 11.0851 19.4133 10.9521C20.0209 10.5141 20.5477 9.96701 20.9641 9.34387Z" fill="#F1F2F2"/>
</g>
<defs>
<clipPath id="clip0">
<rect width="26" height="26" fill="white"/>
</clipPath>
</defs>
</svg>
