<svg width="26" height="26" viewBox="0 0 26 26" fill="none" xmlns="http://www.w3.org/2000/svg">
<path d="M13 26C20.1797 26 26 20.1797 26 13C26 5.8203 20.1797 0 13 0C5.8203 0 0 5.8203 0 13C0 20.1797 5.8203 26 13 26Z" fill="#4D76A1"/>
<path fill-rule="evenodd" clip-rule="evenodd" d="M12.5089 18.7013H13.5293C13.5293 18.7013 13.8375 18.6675 13.9948 18.4978C14.1397 18.3421 14.135 18.0497 14.135 18.0497C14.135 18.0497 14.1151 16.6806 14.7505 16.479C15.3769 16.2804 16.1813 17.8022 17.0338 18.3873C17.6785 18.8302 18.1684 18.7331 18.1684 18.7331L20.448 18.7013C20.448 18.7013 21.6405 18.6279 21.0751 17.6902C21.0287 17.6135 20.7458 16.9967 19.3802 15.7291C17.9508 14.4024 18.1422 14.6169 19.864 12.322C20.9126 10.9244 21.3319 10.0712 21.2009 9.70573C21.076 9.35766 20.3048 9.44966 20.3048 9.44966L17.7381 9.46565C17.7381 9.46565 17.5478 9.4397 17.4067 9.52405C17.2688 9.60678 17.18 9.79959 17.18 9.79959C17.18 9.79959 16.7738 10.8811 16.232 11.8009C15.0891 13.7417 14.6321 13.8441 14.4453 13.7236C14.0108 13.4427 14.1193 12.5953 14.1193 11.9932C14.1193 10.1124 14.4045 9.32823 13.5638 9.12523C13.2848 9.0578 13.0795 9.0133 12.3659 9.00612C11.4501 8.99662 10.6749 9.0089 10.236 9.22395C9.94405 9.36693 9.7188 9.68557 9.85599 9.70388C10.0256 9.72659 10.4098 9.80747 10.6135 10.0849C10.8766 10.4427 10.8673 11.2463 10.8673 11.2463C10.8673 11.2463 11.0184 13.4603 10.5144 13.7354C10.1684 13.924 9.69377 13.5389 8.67482 11.7782C8.15272 10.8762 7.75853 9.87931 7.75853 9.87931C7.75853 9.87931 7.68252 9.69299 7.54696 9.59334C7.38242 9.47261 7.15254 9.43414 7.15254 9.43414L4.7135 9.45013C4.7135 9.45013 4.34736 9.46032 4.21295 9.61953C4.09338 9.76112 4.20345 10.054 4.20345 10.054C4.20345 10.054 6.11297 14.5215 8.27507 16.7728C10.2576 18.8369 12.5089 18.7013 12.5089 18.7013Z" fill="white"/>
</svg>
