<svg width="31" height="31" viewBox="0 0 31 31" fill="none" xmlns="http://www.w3.org/2000/svg">
<path d="M1.42676 29.4981L3.40906 22.2969C2.18672 20.1847 1.54371 17.7894 1.54458 15.3514C1.54458 7.68762 7.81046 1.45312 15.497 1.45312C19.233 1.45312 22.7333 2.90301 25.3671 5.52655C28.0009 8.15021 29.4497 11.6438 29.4497 15.3583C29.4497 23.0219 23.1838 29.2564 15.4971 29.2564H15.4902C13.1543 29.2564 10.8601 28.6696 8.82232 27.5649L1.42676 29.4982V29.4981Z" fill="url(#paint0_linear)"/>
<path d="M0.920898 29.9992L2.97247 22.5426C1.71104 20.3609 1.0386 17.8823 1.04563 15.3485C1.04563 7.4086 7.53322 0.953125 15.5042 0.953125C19.3717 0.953125 23.0036 2.45126 25.7277 5.17154C28.4585 7.89182 29.9626 11.5097 29.9557 15.3553C29.9557 23.2952 23.4681 29.7507 15.4971 29.7507H15.4903C13.076 29.7497 10.7003 29.1468 8.57983 27.9969L0.920898 29.9993V29.9992ZM8.94021 25.3872L9.37687 25.6495C11.2206 26.7404 13.3346 27.3135 15.4903 27.3204H15.4972C22.1164 27.3204 27.509 21.9558 27.509 15.3553C27.509 12.1587 26.2613 9.15534 23.9948 6.89077C21.7283 4.6262 18.7063 3.38343 15.4972 3.38343C8.87094 3.38343 3.47852 8.748 3.47852 15.3485C3.47852 17.6062 4.10918 19.8086 5.31527 21.7141L5.59948 22.1698L4.38648 26.5816L8.94021 25.3872Z" fill="white"/>
<path d="M11.8853 9.32168C11.6149 8.72098 11.3307 8.70711 11.0744 8.70023C10.8665 8.69336 10.6239 8.69336 10.3812 8.69336C10.1387 8.69336 9.75045 8.7831 9.41781 9.14208C9.08504 9.50117 8.15625 10.3711 8.15625 12.1456C8.15625 13.9129 9.45244 15.6252 9.63263 15.8668C9.81281 16.1085 12.1348 19.8575 15.8014 21.3005C18.8511 22.5019 19.475 22.2601 20.1334 22.198C20.7988 22.1359 22.2683 21.3281 22.5732 20.4858C22.8712 19.6435 22.8712 18.9254 22.7811 18.7735C22.691 18.6216 22.4485 18.5319 22.088 18.3523C21.7276 18.1728 19.9532 17.3029 19.6206 17.1787C19.2878 17.0544 19.0452 16.9992 18.8096 17.3582C18.5669 17.7171 17.8739 18.5249 17.6659 18.7667C17.4579 19.0083 17.2431 19.0359 16.8826 18.8564C16.5223 18.6769 15.3578 18.2971 13.9786 17.0682C12.9042 16.1154 12.1764 14.9347 11.9684 14.5758C11.7605 14.2168 11.9477 14.0233 12.1279 13.8439C12.2872 13.6851 12.4883 13.4227 12.6686 13.2156C12.8488 13.0085 12.9111 12.8566 13.0289 12.6149C13.1468 12.3733 13.0913 12.1662 13.0012 11.9867C12.9111 11.8071 12.2042 10.0328 11.8853 9.32168Z" fill="white"/>
<defs>
<linearGradient id="paint0_linear" x1="15.4377" y1="29.4963" x2="15.4377" y2="1.45144" gradientUnits="userSpaceOnUse">
<stop stop-color="#20B038"/>
<stop offset="1" stop-color="#60D66A"/>
</linearGradient>
</defs>
</svg>
